# xmcd
#
# Track frame offsets:
#	165
#	13165
#	33659
#	43541
#	55301
#	72279
#	91402
#	109015
#	120981
#	133823
#	148711
#	156816
#	172089
#
# Disc length: 2468 seconds
#
# Revision: 0
# Processed by: cddbd v1.5PL3 Copyright (c) Steve Scherf et al.
# Submitted via: dBpowerAMP V4.0
#
DISCID=b709a20d
DTITLE=Various Artist - O Passado é Uma Parada - Vol. 7
DYEAR=1900
DGENRE=Easy Listening
TTITLE0=Claudia Barroso/A Vida é Mesmo Assim
TTITLE1=Noite Ilustrada/Meus Tempos de Criança
TTITLE2=Lindomar Castilho/Esta Tarde Vi Chover
TTITLE3=José Augusto/Cinzeiro Cheio
TTITLE4=Carlos Alberto/Meu Primeiro Amor
TTITLE5=Moacir Franco/E Tu Te Vais
TTITLE6=Chico Egidio/Risque
TTITLE7=Gregorio Barros/Aquelos ojos verdes
TTITLE8=Dominguinhos/De Volta Pro Aconchego
TTITLE9=Amado Batista/Vem Morena
TTITLE10=Waldik Soriano/Perdoa-me Pelo Bem Que Te Quero
TTITLE11=Adilson Ramos/Meu Segredo
TTITLE12=Albertinho Fortuna/Mano a Mano
EXTD=
EXTT0=
EXTT1=
EXTT2=
EXTT3=
EXTT4=
EXTT5=
EXTT6=
EXTT7=
EXTT8=
EXTT9=
EXTT10=
EXTT11=
EXTT12=
PLAYORDER=
